ExploreSansVariable_BlackSerif.ufo
<glyph name="exclam" format="2">
  <advance width="290"/>
  <unicode hex="0021"/>
  <outline>
    <contour>
      <point x="53" y="716" type="line"/>
      <point x="243" y="716" type="line"/>
      <point x="187" y="244" type="line"/>
      <point x="103" y="244" type="line"/>
    </contour>
    <contour>
      <point x="145" y="198" type="curve" smooth="yes"/>
      <point x="201" y="198"/>
      <point x="247" y="151"/>
      <point x="247" y="95" type="curve" smooth="yes"/>
      <point x="247" y="39"/>
      <point x="201" y="-7"/>
      <point x="145" y="-7" type="curve" smooth="yes"/>
      <point x="89" y="-7"/>
      <point x="43" y="39"/>
      <point x="43" y="95" type="curve" smooth="yes"/>
      <point x="43" y="151"/>
      <point x="89" y="198"/>
    </contour>
  </outline>
</glyph>
<glyph name="dollar" format="2">
  <advance width="674"/>
  <unicode hex="0024"/>
  <outline>
    <contour>
      <point x="302" y="864" type="line"/>
      <point x="387" y="864" type="line"/>
      <point x="387" y="-138" type="line"/>
      <point x="302" y="-138" type="line"/>
    </contour>
    <component base="S" xOffset="14" yOffset="1"/>
  </outline>
</glyph>
<glyph name="percent" format="2">
  <advance width="855"/>
  <unicode hex="0025"/>
  <outline>
    <contour>
      <point x="577" y="708" type="line"/>
      <point x="687" y="708" type="line"/>
      <point x="280" y="0" type="line"/>
      <point x="169" y="0" type="line"/>
    </contour>
    <contour>
      <point x="644" y="360" type="curve" smooth="yes"/>
      <point x="751" y="360"/>
      <point x="823" y="286"/>
      <point x="823" y="176" type="curve" smooth="yes"/>
      <point x="823" y="66"/>
      <point x="751" y="-8"/>
      <point x="644" y="-8" type="curve" smooth="yes"/>
      <point x="537" y="-8"/>
      <point x="465" y="66"/>
      <point x="465" y="176" type="curve" smooth="yes"/>
      <point x="465" y="286"/>
      <point x="537" y="360"/>
    </contour>
    <contour>
      <point x="644" y="300" type="curve" smooth="yes"/>
      <point x="605" y="300"/>
      <point x="584" y="263"/>
      <point x="584" y="174" type="curve" smooth="yes"/>
      <point x="584" y="90"/>
      <point x="605" y="52"/>
      <point x="645" y="52" type="curve" smooth="yes"/>
      <point x="685" y="52"/>
      <point x="704" y="90"/>
      <point x="704" y="174" type="curve" smooth="yes"/>
      <point x="704" y="261"/>
      <point x="683" y="300"/>
    </contour>
    <contour>
      <point x="210" y="656" type="curve" smooth="yes"/>
      <point x="169" y="656"/>
      <point x="150" y="619"/>
      <point x="150" y="531" type="curve" smooth="yes"/>
      <point x="150" y="447"/>
      <point x="170" y="408"/>
      <point x="211" y="408" type="curve" smooth="yes"/>
      <point x="251" y="408"/>
      <point x="270" y="446"/>
      <point x="270" y="532" type="curve" smooth="yes"/>
      <point x="270" y="618"/>
      <point x="250" y="656"/>
    </contour>
    <contour>
      <point x="211" y="716" type="curve" smooth="yes"/>
      <point x="318" y="716"/>
      <point x="389" y="644"/>
      <point x="389" y="534" type="curve" smooth="yes"/>
      <point x="389" y="424"/>
      <point x="316" y="348"/>
      <point x="209" y="348" type="curve" smooth="yes"/>
      <point x="103" y="348"/>
      <point x="32" y="423"/>
      <point x="32" y="534" type="curve" smooth="yes"/>
      <point x="32" y="643"/>
      <point x="103" y="716"/>
    </contour>
  </outline>
</glyph>
<glyph name="ampersand" format="2">
  <advance width="792"/>
  <unicode hex="0026"/>
  <outline>
    <contour>
      <point x="229" y="429" type="curve"/>
      <point x="253" y="397" type="line"/>
      <point x="211" y="356"/>
      <point x="202" y="318"/>
      <point x="202" y="243" type="curve" smooth="yes"/>
      <point x="202" y="130"/>
      <point x="267" y="62"/>
      <point x="377" y="62" type="curve" smooth="yes"/>
      <point x="530" y="62"/>
      <point x="596" y="251"/>
      <point x="596" y="371" type="curve"/>
      <point x="670" y="361" type="line"/>
      <point x="670" y="218"/>
      <point x="583" y="-8"/>
      <point x="315" y="-8" type="curve" smooth="yes"/>
      <point x="143" y="-8"/>
      <point x="32" y="62"/>
      <point x="32" y="235" type="curve" smooth="yes"/>
      <point x="32" y="355"/>
      <point x="138" y="429"/>
    </contour>
    <contour>
      <point x="517" y="427" type="line"/>
      <point x="750" y="398" type="line"/>
      <point x="750" y="335" type="line"/>
      <point x="517" y="367" type="line"/>
    </contour>
    <contour>
      <point x="365" y="716" type="curve" smooth="yes"/>
      <point x="444" y="716"/>
      <point x="500" y="701"/>
      <point x="558" y="668" type="curve"/>
      <point x="558" y="547" type="line"/>
      <point x="413" y="547" type="line"/>
      <point x="413" y="653" type="line"/>
      <point x="405" y="653"/>
      <point x="388" y="653"/>
      <point x="379" y="653" type="curve" smooth="yes"/>
      <point x="320" y="653"/>
      <point x="287" y="624"/>
      <point x="287" y="566" type="curve" smooth="yes"/>
      <point x="287" y="516"/>
      <point x="296" y="473"/>
      <point x="357" y="410" type="curve" smooth="yes"/>
      <point x="702" y="56" type="line"/>
      <point x="750" y="56" type="line"/>
      <point x="750" y="0" type="line"/>
      <point x="562" y="0" type="line"/>
      <point x="201" y="380" type="line" smooth="yes"/>
      <point x="151" y="433"/>
      <point x="134" y="490"/>
      <point x="134" y="537" type="curve" smooth="yes"/>
      <point x="134" y="655"/>
      <point x="226" y="716"/>
    </contour>
  </outline>
</glyph>
<glyph name="parenleft" format="2">
  <advance width="338"/>
  <unicode hex="0028"/>
  <outline>
    <contour>
      <point x="230" y="800" type="curve"/>
      <point x="301" y="792" type="line"/>
      <point x="244" y="694"/>
      <point x="204" y="592"/>
      <point x="204" y="371" type="curve" smooth="yes"/>
      <point x="204" y="148"/>
      <point x="239" y="37"/>
      <point x="301" y="-56" type="curve"/>
      <point x="235" y="-64" type="line"/>
      <point x="123" y="27"/>
      <point x="37" y="176"/>
      <point x="37" y="371" type="curve" smooth="yes"/>
      <point x="37" y="548"/>
      <point x="125" y="715"/>
    </contour>
  </outline>
</glyph>
<glyph name="parenright" format="2">
  <advance width="338"/>
  <unicode hex="0029"/>
  <outline>
    <contour>
      <point x="108" y="800" type="curve"/>
      <point x="37" y="792" type="line"/>
      <point x="94" y="694"/>
      <point x="134" y="556"/>
      <point x="134" y="370" type="curve" smooth="yes"/>
      <point x="134" y="184"/>
      <point x="99" y="37"/>
      <point x="37" y="-56" type="curve"/>
      <point x="103" y="-64" type="line"/>
      <point x="215" y="27"/>
      <point x="301" y="176"/>
      <point x="301" y="371" type="curve" smooth="yes"/>
      <point x="301" y="548"/>
      <point x="213" y="715"/>
    </contour>
  </outline>
</glyph>
<glyph name="asterisk" format="2">
  <advance width="479"/>
  <unicode hex="002A"/>
  <outline>
    <contour>
      <point x="182" y="806" type="line"/>
      <point x="297" y="806" type="line"/>
      <point x="297" y="783" type="line"/>
      <point x="264" y="646" type="line"/>
      <point x="391" y="716" type="line"/>
      <point x="413" y="721" type="line"/>
      <point x="439" y="616" type="line"/>
      <point x="416" y="609" type="line"/>
      <point x="270" y="607" type="line"/>
      <point x="380" y="501" type="line"/>
      <point x="390" y="480" type="line"/>
      <point x="301" y="422" type="line"/>
      <point x="288" y="445" type="line"/>
      <point x="236" y="580" type="line"/>
      <point x="188" y="445" type="line"/>
      <point x="175" y="422" type="line"/>
      <point x="88" y="480" type="line"/>
      <point x="99" y="501" type="line"/>
      <point x="205" y="608" type="line"/>
      <point x="59" y="609" type="line"/>
      <point x="40" y="616" type="line"/>
      <point x="65" y="721" type="line"/>
      <point x="91" y="715" type="line"/>
      <point x="212" y="646" type="line"/>
      <point x="182" y="783" type="line"/>
    </contour>
  </outline>
</glyph>
<glyph name="comma" format="2">
  <advance width="215"/>
  <unicode hex="002C"/>
  <outline>
    <contour>
      <point x="115" y="-143" type="curve"/>
      <point x="43" y="-143" type="line"/>
      <point x="100" y="9" type="line"/>
      <point x="24" y="14" type="line"/>
      <point x="33" y="175" type="line"/>
      <point x="191" y="175" type="line"/>
      <point x="191" y="26"/>
      <point x="170" y="-62"/>
    </contour>
  </outline>
</glyph>
<glyph name="period" format="2">
  <advance width="268"/>
  <unicode hex="002E"/>
  <outline>
    <contour>
      <point x="134" y="196" type="curve" smooth="yes"/>
      <point x="190" y="196"/>
      <point x="236" y="161"/>
      <point x="236" y="94" type="curve" smooth="yes"/>
      <point x="236" y="26"/>
      <point x="190" y="-8"/>
      <point x="134" y="-8" type="curve" smooth="yes"/>
      <point x="78" y="-8"/>
      <point x="32" y="26"/>
      <point x="32" y="94" type="curve" smooth="yes"/>
      <point x="32" y="161"/>
      <point x="78" y="196"/>
    </contour>
  </outline>
</glyph>
<glyph name="slash" format="2">
  <advance width="392"/>
  <unicode hex="002F"/>
  <outline>
    <contour>
      <point x="299" y="772" type="line"/>
      <point x="418" y="740" type="line"/>
      <point x="93" y="-115" type="line"/>
      <point x="-26" y="-83" type="line"/>
    </contour>
  </outline>
</glyph>
<glyph name="zero" format="2">
  <advance width="595"/>
  <unicode hex="0030"/>
  <outline>
    <contour>
      <point x="300" y="652" type="curve" smooth="yes"/>
      <point x="253" y="652"/>
      <point x="216" y="592"/>
      <point x="216" y="358" type="curve" smooth="yes"/>
      <point x="216" y="134"/>
      <point x="237" y="57"/>
      <point x="300" y="57" type="curve" smooth="yes"/>
      <point x="361" y="57"/>
      <point x="380" y="135"/>
      <point x="380" y="360" type="curve" smooth="yes"/>
      <point x="380" y="592"/>
      <point x="352" y="652"/>
    </contour>
    <contour>
      <point x="300" y="716" type="curve" smooth="yes"/>
      <point x="471" y="716"/>
      <point x="572" y="597"/>
      <point x="572" y="360" type="curve" smooth="yes"/>
      <point x="572" y="114"/>
      <point x="488" y="-7"/>
      <point x="300" y="-7" type="curve" smooth="yes"/>
      <point x="132" y="-7"/>
      <point x="24" y="114"/>
      <point x="24" y="357" type="curve" smooth="yes"/>
      <point x="24" y="596"/>
      <point x="131" y="716"/>
    </contour>
  </outline>
</glyph>
<glyph name="one" format="2">
  <advance width="595"/>
  <unicode hex="0031"/>
  <outline>
    <contour>
      <point x="222" y="588" type="curve"/>
      <point x="222" y="70" type="line"/>
      <point x="68" y="70" type="line"/>
      <point x="68" y="0" type="line"/>
      <point x="551" y="0" type="line"/>
      <point x="551" y="70" type="line"/>
      <point x="414" y="70" type="line"/>
      <point x="414" y="708" type="line"/>
      <point x="280" y="708" type="line"/>
      <point x="224" y="671"/>
      <point x="138" y="629"/>
      <point x="71" y="607" type="curve"/>
      <point x="71" y="495" type="line"/>
      <point x="135" y="511"/>
      <point x="194" y="546"/>
    </contour>
  </outline>
</glyph>
<glyph name="two" format="2">
  <advance width="595"/>
  <unicode hex="0032"/>
  <outline>
    <contour>
      <point x="41" y="654" type="line"/>
      <point x="112" y="698"/>
      <point x="172" y="716"/>
      <point x="264" y="716" type="curve" smooth="yes"/>
      <point x="410" y="716"/>
      <point x="533" y="659"/>
      <point x="533" y="507" type="curve" smooth="yes"/>
      <point x="533" y="394"/>
      <point x="449" y="311"/>
      <point x="317" y="218" type="curve" smooth="yes"/>
      <point x="220" y="150" type="line"/>
      <point x="450" y="150" type="line"/>
      <point x="480" y="225" type="line" smooth="yes"/>
      <point x="489" y="247"/>
      <point x="503" y="253"/>
      <point x="520" y="252" type="curve" smooth="yes"/>
      <point x="556" y="250" type="line"/>
      <point x="542" y="0" type="line"/>
      <point x="41" y="0" type="line"/>
      <point x="41" y="103" type="line"/>
      <point x="215" y="279" type="line" smooth="yes"/>
      <point x="283" y="347"/>
      <point x="342" y="417"/>
      <point x="342" y="508" type="curve" smooth="yes"/>
      <point x="342" y="596"/>
      <point x="282" y="631"/>
      <point x="211" y="631" type="curve" smooth="yes"/>
      <point x="151" y="631"/>
      <point x="115" y="613"/>
      <point x="66" y="580" type="curve"/>
    </contour>
  </outline>
</glyph>
<glyph name="three" format="2">
  <advance width="595"/>
  <unicode hex="0033"/>
  <outline>
    <contour>
      <point x="61" y="708" type="line"/>
      <point x="529" y="708" type="line"/>
      <point x="529" y="599" type="line"/>
      <point x="362" y="403" type="line"/>
      <point x="507" y="398"/>
      <point x="569" y="318"/>
      <point x="569" y="207" type="curve" smooth="yes"/>
      <point x="569" y="78"/>
      <point x="457" y="-8"/>
      <point x="281" y="-8" type="curve" smooth="yes"/>
      <point x="146" y="-8"/>
      <point x="73" y="14"/>
      <point x="16" y="54" type="curve"/>
      <point x="53" y="163" type="line"/>
      <point x="103" y="115"/>
      <point x="163" y="93"/>
      <point x="248" y="93" type="curve" smooth="yes"/>
      <point x="332" y="93"/>
      <point x="377" y="127"/>
      <point x="377" y="206" type="curve" smooth="yes"/>
      <point x="377" y="293"/>
      <point x="316" y="315"/>
      <point x="256" y="315" type="curve" smooth="yes"/>
      <point x="228" y="315" type="line"/>
      <point x="228" y="401" type="line"/>
      <point x="372" y="568" type="line"/>
      <point x="142" y="568" type="line"/>
      <point x="142" y="472" type="line"/>
      <point x="61" y="472" type="line"/>
    </contour>
  </outline>
</glyph>
<glyph name="four" format="2">
  <advance width="595"/>
  <unicode hex="0034"/>
  <outline>
    <contour>
      <point x="236" y="708" type="line"/>
      <point x="439" y="708" type="line"/>
      <point x="188" y="262" type="line"/>
      <point x="311" y="262" type="line"/>
      <point x="311" y="398" type="line"/>
      <point x="503" y="398" type="line"/>
      <point x="503" y="262" type="line"/>
      <point x="579" y="262" type="line"/>
      <point x="579" y="191" type="line"/>
      <point x="503" y="166" type="line"/>
      <point x="503" y="87" type="line"/>
      <point x="559" y="87" type="line"/>
      <point x="559" y="0" type="line"/>
      <point x="255" y="0" type="line"/>
      <point x="255" y="87" type="line"/>
      <point x="311" y="87" type="line"/>
      <point x="311" y="166" type="line"/>
      <point x="26" y="166" type="line"/>
      <point x="26" y="262" type="line"/>
    </contour>
  </outline>
</glyph>
<glyph name="five" format="2">
  <advance width="595"/>
  <unicode hex="0035"/>
  <outline>
    <contour>
      <point x="72" y="708" type="line"/>
      <point x="525" y="708" type="line"/>
      <point x="525" y="548" type="line"/>
      <point x="166" y="548" type="line"/>
      <point x="155" y="375" type="line"/>
      <point x="193" y="425"/>
      <point x="261" y="455"/>
      <point x="343" y="455" type="curve" smooth="yes"/>
      <point x="456" y="455"/>
      <point x="572" y="390"/>
      <point x="572" y="239" type="curve" smooth="yes"/>
      <point x="572" y="76"/>
      <point x="464" y="-8"/>
      <point x="271" y="-8" type="curve" smooth="yes"/>
      <point x="166" y="-8"/>
      <point x="82" y="20"/>
      <point x="18" y="62" type="curve"/>
      <point x="18" y="85" type="line" smooth="yes"/>
      <point x="18" y="140"/>
      <point x="33" y="197"/>
      <point x="96" y="206" type="curve" smooth="yes"/>
      <point x="147" y="213" type="line"/>
      <point x="193" y="61" type="line"/>
      <point x="204" y="58"/>
      <point x="209.33529663085938" y="56"/>
      <point x="231" y="56" type="curve" smooth="yes"/>
      <point x="321" y="56"/>
      <point x="379" y="111"/>
      <point x="379" y="217" type="curve" smooth="yes"/>
      <point x="379" y="319"/>
      <point x="336" y="364"/>
      <point x="272" y="364" type="curve" smooth="yes"/>
      <point x="214" y="364"/>
      <point x="184" y="330"/>
      <point x="171" y="306" type="curve"/>
      <point x="50" y="306" type="line"/>
    </contour>
  </outline>
</glyph>
<glyph name="six" format="2">
  <advance width="595"/>
  <unicode hex="0036"/>
  <outline>
    <contour>
      <point x="451" y="719" type="curve"/>
      <point x="459" y="619" type="line"/>
      <point x="334" y="604"/>
      <point x="232" y="516"/>
      <point x="211" y="398" type="curve"/>
      <point x="230" y="440"/>
      <point x="273" y="473"/>
      <point x="352" y="473" type="curve" smooth="yes"/>
      <point x="487" y="473"/>
      <point x="571" y="383"/>
      <point x="571" y="240" type="curve" smooth="yes"/>
      <point x="571" y="80"/>
      <point x="463" y="-8"/>
      <point x="293" y="-8" type="curve" smooth="yes"/>
      <point x="126" y="-8"/>
      <point x="24" y="100"/>
      <point x="24" y="273" type="curve" smooth="yes"/>
      <point x="24" y="568"/>
      <point x="228" y="703"/>
    </contour>
    <contour>
      <point x="296" y="381" type="curve" smooth="yes"/>
      <point x="238" y="381"/>
      <point x="216" y="341"/>
      <point x="216" y="242" type="curve" smooth="yes"/>
      <point x="216" y="120"/>
      <point x="238" y="88"/>
      <point x="293" y="88" type="curve" smooth="yes"/>
      <point x="353" y="88"/>
      <point x="379" y="120"/>
      <point x="379" y="233" type="curve" smooth="yes"/>
      <point x="379" y="337"/>
      <point x="353" y="381"/>
    </contour>
  </outline>
</glyph>
<glyph name="seven" format="2">
  <advance width="595"/>
  <unicode hex="0037"/>
  <outline>
    <contour>
      <point x="52" y="708" type="line"/>
      <point x="555" y="708" type="line"/>
      <point x="555" y="558" type="line"/>
      <point x="320" y="0" type="line"/>
      <point x="105" y="0" type="line"/>
      <point x="485" y="548" type="line"/>
      <point x="116" y="548" type="line"/>
      <point x="116" y="404" type="line"/>
      <point x="52" y="404" type="line"/>
    </contour>
  </outline>
</glyph>
<glyph name="eight" format="2">
  <advance width="595"/>
  <unicode hex="0038"/>
  <outline>
    <contour>
      <point x="296" y="719" type="curve" smooth="yes"/>
      <point x="452" y="719"/>
      <point x="550" y="641"/>
      <point x="549" y="536" type="curve" smooth="yes"/>
      <point x="547" y="401"/>
      <point x="468" y="384"/>
      <point x="397" y="370" type="curve"/>
      <point x="468" y="363"/>
      <point x="571" y="319"/>
      <point x="571" y="190" type="curve" smooth="yes"/>
      <point x="571" y="56"/>
      <point x="454" y="-12"/>
      <point x="296" y="-12" type="curve" smooth="yes"/>
      <point x="138" y="-12"/>
      <point x="24" y="55"/>
      <point x="24" y="189" type="curve" smooth="yes"/>
      <point x="24" y="321"/>
      <point x="105" y="358"/>
      <point x="181" y="370" type="curve"/>
      <point x="106" y="383"/>
      <point x="46" y="428"/>
      <point x="46" y="536" type="curve" smooth="yes"/>
      <point x="46" y="643"/>
      <point x="139" y="719"/>
    </contour>
    <contour>
      <point x="296" y="652" type="curve" smooth="yes"/>
      <point x="243" y="652"/>
      <point x="228" y="614"/>
      <point x="228" y="523" type="curve" smooth="yes"/>
      <point x="228" y="441"/>
      <point x="237" y="397"/>
      <point x="296" y="397" type="curve" smooth="yes"/>
      <point x="356" y="397"/>
      <point x="367" y="441"/>
      <point x="367" y="523" type="curve" smooth="yes"/>
      <point x="367" y="614"/>
      <point x="349" y="652"/>
    </contour>
    <contour>
      <point x="296" y="337" type="curve" smooth="yes"/>
      <point x="225" y="337"/>
      <point x="216" y="276"/>
      <point x="216" y="191" type="curve" smooth="yes"/>
      <point x="216" y="98"/>
      <point x="229" y="52"/>
      <point x="296" y="52" type="curve" smooth="yes"/>
      <point x="363" y="52"/>
      <point x="379" y="98"/>
      <point x="379" y="191" type="curve" smooth="yes"/>
      <point x="379" y="278"/>
      <point x="369" y="337"/>
    </contour>
  </outline>
</glyph>
<glyph name="nine" format="2">
  <advance width="595"/>
  <unicode hex="0039"/>
  <outline>
    <contour>
      <point x="294" y="716" type="curve" smooth="yes"/>
      <point x="448" y="716"/>
      <point x="571" y="628"/>
      <point x="571" y="427" type="curve" smooth="yes"/>
      <point x="571" y="147"/>
      <point x="341" y="17"/>
      <point x="145" y="-11" type="curve"/>
      <point x="131" y="51" type="line"/>
      <point x="289" y="75"/>
      <point x="388" y="202"/>
      <point x="383" y="344" type="curve"/>
      <point x="363" y="291"/>
      <point x="312" y="258"/>
      <point x="225" y="258" type="curve" smooth="yes"/>
      <point x="87" y="258"/>
      <point x="24" y="345"/>
      <point x="24" y="482" type="curve" smooth="yes"/>
      <point x="24" y="627"/>
      <point x="150" y="716"/>
    </contour>
    <contour>
      <point x="294" y="646" type="curve" smooth="yes"/>
      <point x="236" y="646"/>
      <point x="216" y="587"/>
      <point x="216" y="482" type="curve" smooth="yes"/>
      <point x="216" y="359"/>
      <point x="254" y="332"/>
      <point x="294" y="332" type="curve" smooth="yes"/>
      <point x="343" y="332"/>
      <point x="379" y="367"/>
      <point x="379" y="482" type="curve" smooth="yes"/>
      <point x="379" y="593"/>
      <point x="357" y="646"/>
    </contour>
  </outline>
</glyph>
<glyph name="A" format="2">
  <advance width="725"/>
  <unicode hex="0041"/>
  <anchor x="337" y="876" name="AccentCenter"/>
  <outline>
    <contour>
      <point x="456" y="708" type="line"/>
      <point x="680" y="64" type="line"/>
      <point x="717" y="64" type="line"/>
      <point x="717" y="0" type="line"/>
      <point x="461" y="0" type="line"/>
      <point x="461" y="64" type="line"/>
      <point x="506" y="64" type="line"/>
      <point x="474" y="182" type="line"/>
      <point x="178" y="182" type="line"/>
      <point x="141" y="64" type="line"/>
      <point x="202" y="64" type="line"/>
      <point x="202" y="0" type="line"/>
      <point x="8" y="0" type="line"/>
      <point x="8" y="64" type="line"/>
      <point x="44" y="64" type="line"/>
      <point x="266" y="675" type="line"/>
      <point x="246" y="708" type="line"/>
    </contour>
    <contour>
      <point x="331" y="644" type="line"/>
      <point x="196" y="246" type="line"/>
      <point x="459" y="246" type="line"/>
      <point x="336" y="644" type="line"/>
    </contour>
  </outline>
</glyph>
<glyph name="B" format="2">
  <advance width="687"/>
  <unicode hex="0042"/>
  <outline>
    <contour>
      <point x="18" y="708" type="line"/>
      <point x="404" y="708" type="line" smooth="yes"/>
      <point x="536" y="708"/>
      <point x="636" y="643"/>
      <point x="636" y="529" type="curve" smooth="yes"/>
      <point x="636" y="441"/>
      <point x="589" y="384"/>
      <point x="511" y="371" type="curve"/>
      <point x="591" y="364"/>
      <point x="667" y="312"/>
      <point x="667" y="197" type="curve" smooth="yes"/>
      <point x="667" y="74"/>
      <point x="567" y="0"/>
      <point x="427" y="0" type="curve" smooth="yes"/>
      <point x="16" y="0" type="line"/>
      <point x="16" y="96" type="line"/>
      <point x="90" y="96" type="line"/>
      <point x="90" y="612" type="line"/>
      <point x="18" y="612" type="line"/>
    </contour>
    <contour>
      <point x="282" y="612" type="line"/>
      <point x="282" y="421" type="line"/>
      <point x="336" y="421" type="line" smooth="yes"/>
      <point x="408" y="421"/>
      <point x="444" y="453"/>
      <point x="444" y="513" type="curve" smooth="yes"/>
      <point x="444" y="585"/>
      <point x="410" y="612"/>
      <point x="337" y="612" type="curve" smooth="yes"/>
    </contour>
    <contour>
      <point x="282" y="335" type="line"/>
      <point x="282" y="96" type="line"/>
      <point x="347" y="96" type="line" smooth="yes"/>
      <point x="428" y="96"/>
      <point x="475" y="132"/>
      <point x="475" y="211" type="curve" smooth="yes"/>
      <point x="475" y="305"/>
      <point x="424" y="335"/>
      <point x="347" y="335" type="curve" smooth="yes"/>
    </contour>
  </outline>
</glyph>
<glyph name="C" format="2">
  <advance width="673"/>
  <unicode hex="0043"/>
  <outline>
    <contour>
      <point x="393" y="716" type="curve" smooth="yes"/>
      <point x="482" y="716"/>
      <point x="582" y="687"/>
      <point x="640" y="628" type="curve"/>
      <point x="640" y="628"/>
      <point x="621" y="545"/>
      <point x="613" y="508" type="curve" smooth="yes"/>
      <point x="607" y="485"/>
      <point x="590" y="475"/>
      <point x="563" y="475" type="curve" smooth="yes"/>
      <point x="538" y="475" type="line"/>
      <point x="480" y="621" type="line"/>
      <point x="469" y="621"/>
      <point x="451" y="621"/>
      <point x="438" y="621" type="curve"/>
      <point x="315" y="621"/>
      <point x="228" y="586"/>
      <point x="228" y="352" type="curve" smooth="yes"/>
      <point x="228" y="150"/>
      <point x="289" y="79"/>
      <point x="432" y="79" type="curve" smooth="yes"/>
      <point x="507" y="79"/>
      <point x="566" y="118"/>
      <point x="607" y="155" type="curve"/>
      <point x="649" y="84" type="line"/>
      <point x="602" y="49"/>
      <point x="529" y="-8"/>
      <point x="390" y="-8" type="curve" smooth="yes"/>
      <point x="151" y="-8"/>
      <point x="36" y="125"/>
      <point x="36" y="352" type="curve" smooth="yes"/>
      <point x="36" y="608"/>
      <point x="208" y="716"/>
    </contour>
  </outline>
</glyph>
<glyph name="D" format="2">
  <advance width="731"/>
  <unicode hex="0044"/>
  <outline>
    <contour>
      <point x="40" y="708" type="line"/>
      <point x="350" y="708" type="line" smooth="yes"/>
      <point x="578" y="708"/>
      <point x="695" y="566"/>
      <point x="695" y="361" type="curve" smooth="yes"/>
      <point x="695" y="138"/>
      <point x="577" y="0"/>
      <point x="346" y="0" type="curve" smooth="yes"/>
      <point x="40" y="0" type="line"/>
      <point x="40" y="96" type="line"/>
      <point x="96" y="96" type="line"/>
      <point x="96" y="612" type="line"/>
      <point x="40" y="612" type="line"/>
    </contour>
    <contour>
      <point x="288" y="612" type="line"/>
      <point x="288" y="96" type="line"/>
      <point x="324" y="96" type="line" smooth="yes"/>
      <point x="443" y="96"/>
      <point x="503" y="191"/>
      <point x="503" y="363" type="curve" smooth="yes"/>
      <point x="503" y="527"/>
      <point x="439" y="612"/>
      <point x="326" y="612" type="curve" smooth="yes"/>
    </contour>
  </outline>
</glyph>
<glyph name="E" format="2">
  <advance width="662"/>
  <unicode hex="0045"/>
  <anchor x="282" y="880" name="AccentCenter"/>
  <outline>
    <contour>
      <point x="19" y="708" type="line"/>
      <point x="611" y="708" type="line"/>
      <point x="611" y="559" type="line"/>
      <point x="547" y="559" type="line"/>
      <point x="547" y="646" type="line"/>
      <point x="285" y="646" type="line"/>
      <point x="285" y="399" type="line"/>
      <point x="519" y="399" type="line"/>
      <point x="519" y="335" type="line"/>
      <point x="285" y="335" type="line"/>
      <point x="285" y="64" type="line"/>
      <point x="567" y="64" type="line"/>
      <point x="567" y="155" type="line"/>
      <point x="631" y="155" type="line"/>
      <point x="631" y="0" type="line"/>
      <point x="19" y="0" type="line"/>
      <point x="19" y="64" type="line"/>
      <point x="92" y="64" type="line"/>
      <point x="92" y="644" type="line"/>
      <point x="19" y="644" type="line"/>
    </contour>
  </outline>
</glyph>
<glyph name="F" format="2">
  <advance width="607"/>
  <unicode hex="0046"/>
  <outline>
    <contour>
      <point x="16" y="708" type="line"/>
      <point x="582" y="708" type="line"/>
      <point x="582" y="559" type="line"/>
      <point x="486" y="559" type="line"/>
      <point x="486" y="612" type="line"/>
      <point x="294" y="612" type="line"/>
      <point x="294" y="417" type="line"/>
      <point x="490" y="417" type="line"/>
      <point x="490" y="317" type="line"/>
      <point x="294" y="317" type="line"/>
      <point x="294" y="96" type="line"/>
      <point x="404" y="96" type="line"/>
      <point x="404" y="0" type="line"/>
      <point x="16" y="0" type="line"/>
      <point x="16" y="96" type="line"/>
      <point x="101" y="96" type="line"/>
      <point x="101" y="612" type="line"/>
      <point x="16" y="612" type="line"/>
    </contour>
  </outline>
</glyph>
<glyph name="G" format="2">
  <advance width="708"/>
  <unicode hex="0047"/>
  <outline>
    <contour>
      <point x="415" y="716" type="curve" smooth="yes"/>
      <point x="500" y="716"/>
      <point x="564" y="703"/>
      <point x="649" y="652" type="curve"/>
      <point x="624" y="544" type="line" smooth="yes"/>
      <point x="618" y="519"/>
      <point x="601" y="508"/>
      <point x="575" y="508" type="curve" smooth="yes"/>
      <point x="549" y="508" type="line"/>
      <point x="518" y="606" type="line"/>
      <point x="483" y="620"/>
      <point x="459" y="623"/>
      <point x="437" y="623" type="curve" smooth="yes"/>
      <point x="301" y="623"/>
      <point x="232" y="553"/>
      <point x="232" y="352" type="curve" smooth="yes"/>
      <point x="232" y="146"/>
      <point x="301" y="88"/>
      <point x="421" y="88" type="curve" smooth="yes"/>
      <point x="431" y="88"/>
      <point x="457" y="88"/>
      <point x="457" y="88" type="curve"/>
      <point x="457" y="306" type="line"/>
      <point x="326" y="306" type="line"/>
      <point x="326" y="406" type="line"/>
      <point x="701" y="406" type="line"/>
      <point x="696" y="306" type="line"/>
      <point x="644" y="306" type="line"/>
      <point x="644" y="14" type="line"/>
      <point x="589" y="4"/>
      <point x="498" y="-8"/>
      <point x="418" y="-8" type="curve" smooth="yes"/>
      <point x="177" y="-8"/>
      <point x="40" y="91"/>
      <point x="40" y="352" type="curve" smooth="yes"/>
      <point x="40" y="571"/>
      <point x="183" y="716"/>
    </contour>
  </outline>
</glyph>
<glyph name="H" format="2">
  <advance width="776"/>
  <unicode hex="0048"/>
  <outline>
    <contour>
      <point x="360" y="708" type="line"/>
      <point x="360" y="612" type="line"/>
      <point x="286" y="612" type="line"/>
      <point x="286" y="428" type="line"/>
      <point x="490" y="428" type="line"/>
      <point x="490" y="612" type="line"/>
      <point x="416" y="612" type="line"/>
      <point x="416" y="708" type="line"/>
      <point x="756" y="708" type="line"/>
      <point x="756" y="612" type="line"/>
      <point x="682" y="612" type="line"/>
      <point x="682" y="96" type="line"/>
      <point x="756" y="96" type="line"/>
      <point x="756" y="0" type="line"/>
      <point x="416" y="0" type="line"/>
      <point x="416" y="96" type="line"/>
      <point x="490" y="96" type="line"/>
      <point x="490" y="330" type="line"/>
      <point x="286" y="330" type="line"/>
      <point x="286" y="96" type="line"/>
      <point x="360" y="96" type="line"/>
      <point x="360" y="0" type="line"/>
      <point x="20" y="0" type="line"/>
      <point x="20" y="96" type="line"/>
      <point x="94" y="96" type="line"/>
      <point x="94" y="612" type="line"/>
      <point x="20" y="612" type="line"/>
      <point x="20" y="708" type="line"/>
    </contour>
  </outline>
</glyph>
<glyph name="I" format="2">
  <advance width="384"/>
  <unicode hex="0049"/>
  <anchor x="186" y="880" name="AccentCenter"/>
  <outline>
    <contour>
      <point x="40" y="708" type="line"/>
      <point x="344" y="708" type="line"/>
      <point x="344" y="638" type="line"/>
      <point x="288" y="638" type="line"/>
      <point x="288" y="70" type="line"/>
      <point x="344" y="70" type="line"/>
      <point x="344" y="0" type="line"/>
      <point x="40" y="0" type="line"/>
      <point x="40" y="70" type="line"/>
      <point x="96" y="70" type="line"/>
      <point x="96" y="638" type="line"/>
      <point x="40" y="638" type="line"/>
    </contour>
  </outline>
</glyph>
<glyph name="J" format="2">
  <advance width="425"/>
  <unicode hex="004A"/>
  <outline>
    <contour>
      <point x="46" y="708" type="line"/>
      <point x="361" y="708" type="line"/>
      <point x="361" y="254" type="line" smooth="yes"/>
      <point x="361" y="58"/>
      <point x="277" y="-8"/>
      <point x="129" y="-8" type="curve" smooth="yes"/>
      <point x="80" y="-8"/>
      <point x="21" y="3"/>
      <point x="12" y="5" type="curve"/>
      <point x="17" y="64" type="line"/>
      <point x="66" y="63" type="line" smooth="yes"/>
      <point x="136" y="61"/>
      <point x="169" y="98"/>
      <point x="169" y="181" type="curve" smooth="yes"/>
      <point x="169" y="638" type="line"/>
      <point x="46" y="638" type="line"/>
    </contour>
  </outline>
</glyph>
<glyph name="K" format="2">
  <advance width="744"/>
  <unicode hex="004B"/>
  <outline>
    <contour>
      <point x="40" y="708" type="line"/>
      <point x="337" y="708" type="line"/>
      <point x="337" y="612" type="line"/>
      <point x="281" y="612" type="line"/>
      <point x="281" y="355" type="line"/>
      <point x="524" y="612" type="line"/>
      <point x="480" y="612" type="line"/>
      <point x="480" y="708" type="line"/>
      <point x="703" y="708" type="line"/>
      <point x="703" y="612" type="line"/>
      <point x="666" y="612" type="line"/>
      <point x="432" y="361" type="line"/>
      <point x="655" y="96" type="line"/>
      <point x="711" y="96" type="line"/>
      <point x="711" y="0" type="line"/>
      <point x="533" y="0" type="line"/>
      <point x="285" y="309" type="line"/>
      <point x="281" y="309" type="line"/>
      <point x="281" y="96" type="line"/>
      <point x="337" y="96" type="line"/>
      <point x="337" y="0" type="line"/>
      <point x="40" y="0" type="line"/>
      <point x="40" y="96" type="line"/>
      <point x="96" y="96" type="line"/>
      <point x="96" y="612" type="line"/>
      <point x="40" y="612" type="line"/>
    </contour>
  </outline>
</glyph>
<glyph name="L" format="2">
  <advance width="597"/>
  <unicode hex="004C"/>
  <outline>
    <contour>
      <point x="16" y="708" type="line"/>
      <point x="356" y="708" type="line"/>
      <point x="356" y="612" type="line"/>
      <point x="282" y="612" type="line"/>
      <point x="282" y="96" type="line"/>
      <point x="501" y="96" type="line"/>
      <point x="501" y="148" type="line"/>
      <point x="597" y="148" type="line"/>
      <point x="597" y="0" type="line"/>
      <point x="16" y="0" type="line"/>
      <point x="16" y="96" type="line"/>
      <point x="90" y="96" type="line"/>
      <point x="90" y="612" type="line"/>
      <point x="16" y="612" type="line"/>
    </contour>
  </outline>
</glyph>
<glyph name="M" format="2">
  <advance width="927"/>
  <unicode hex="004D"/>
  <outline>
    <contour>
      <point x="16" y="708" type="line"/>
      <point x="262" y="708" type="line"/>
      <point x="437" y="267" type="line"/>
      <point x="627" y="708" type="line"/>
      <point x="911" y="708" type="line"/>
      <point x="911" y="644" type="line"/>
      <point x="837" y="644" type="line"/>
      <point x="837" y="64" type="line"/>
      <point x="911" y="64" type="line"/>
      <point x="911" y="0" type="line"/>
      <point x="571" y="0" type="line"/>
      <point x="571" y="64" type="line"/>
      <point x="645" y="64" type="line"/>
      <point x="645" y="578" type="line"/>
      <point x="472" y="169" type="line"/>
      <point x="318" y="169" type="line"/>
      <point x="152" y="593" type="line"/>
      <point x="152" y="64" type="line"/>
      <point x="208" y="64" type="line"/>
      <point x="208" y="0" type="line"/>
      <point x="16" y="0" type="line"/>
      <point x="16" y="64" type="line"/>
      <point x="83" y="64" type="line"/>
      <point x="83" y="644" type="line"/>
      <point x="16" y="644" type="line"/>
    </contour>
  </outline>
</glyph>
<glyph name="N" format="2">
  <advance width="762"/>
  <unicode hex="004E"/>
  <outline>
    <contour>
      <point x="40" y="708" type="line"/>
      <point x="268" y="708" type="line"/>
      <point x="574" y="203" type="line"/>
      <point x="574" y="639" type="line"/>
      <point x="518" y="639" type="line"/>
      <point x="518" y="708" type="line"/>
      <point x="730" y="708" type="line"/>
      <point x="730" y="638" type="line"/>
      <point x="674" y="638" type="line"/>
      <point x="674" y="37" type="line"/>
      <point x="499" y="0" type="line"/>
      <point x="196" y="493" type="line"/>
      <point x="196" y="70" type="line"/>
      <point x="252" y="70" type="line"/>
      <point x="252" y="0" type="line"/>
      <point x="40" y="0" type="line"/>
      <point x="40" y="70" type="line"/>
      <point x="96" y="70" type="line"/>
      <point x="96" y="638" type="line"/>
      <point x="40" y="638" type="line"/>
    </contour>
  </outline>
</glyph>
<glyph name="O" format="2">
  <advance width="728"/>
  <unicode hex="004F"/>
  <anchor x="367" y="881" name="AccentCenter"/>
  <outline>
    <contour>
      <point x="365" y="716" type="curve" smooth="yes"/>
      <point x="570" y="716"/>
      <point x="692" y="580"/>
      <point x="692" y="357" type="curve" smooth="yes"/>
      <point x="692" y="131"/>
      <point x="566" y="-8"/>
      <point x="364" y="-8" type="curve" smooth="yes"/>
      <point x="162" y="-8"/>
      <point x="36" y="132"/>
      <point x="36" y="357" type="curve" smooth="yes"/>
      <point x="36" y="580"/>
      <point x="160" y="716"/>
    </contour>
    <contour>
      <point x="364" y="620" type="curve" smooth="yes"/>
      <point x="276" y="620"/>
      <point x="228" y="555"/>
      <point x="228" y="357" type="curve" smooth="yes"/>
      <point x="228" y="151"/>
      <point x="278" y="88"/>
      <point x="365" y="88" type="curve" smooth="yes"/>
      <point x="451" y="88"/>
      <point x="500" y="150"/>
      <point x="500" y="356" type="curve" smooth="yes"/>
      <point x="500" y="555"/>
      <point x="452" y="620"/>
    </contour>
  </outline>
</glyph>
<glyph name="P" format="2">
  <advance width="712"/>
  <unicode hex="0050"/>
  <outline>
    <contour>
      <point x="40" y="708" type="line"/>
      <point x="411" y="708" type="line" smooth="yes"/>
      <point x="564" y="708"/>
      <point x="680" y="640"/>
      <point x="680" y="483" type="curve" smooth="yes"/>
      <point x="680" y="343"/>
      <point x="564" y="254"/>
      <point x="411" y="254" type="curve" smooth="yes"/>
      <point x="288" y="254" type="line"/>
      <point x="288" y="96" type="line"/>
      <point x="344" y="96" type="line"/>
      <point x="344" y="0" type="line"/>
      <point x="40" y="0" type="line"/>
      <point x="40" y="96" type="line"/>
      <point x="96" y="96" type="line"/>
      <point x="96" y="612" type="line"/>
      <point x="40" y="612" type="line"/>
    </contour>
    <contour>
      <point x="288" y="612" type="line"/>
      <point x="288" y="350" type="line"/>
      <point x="342" y="350" type="line" smooth="yes"/>
      <point x="426" y="350"/>
      <point x="493" y="380"/>
      <point x="493" y="486" type="curve" smooth="yes"/>
      <point x="493" y="593"/>
      <point x="426" y="612"/>
      <point x="342" y="612" type="curve" smooth="yes"/>
    </contour>
  </outline>
</glyph>
<glyph name="Q" format="2">
  <advance width="724"/>
  <unicode hex="0051"/>
  <outline>
    <contour>
      <point x="365" y="716" type="curve" smooth="yes"/>
      <point x="570" y="716"/>
      <point x="692" y="580"/>
      <point x="692" y="357" type="curve" smooth="yes"/>
      <point x="692" y="145"/>
      <point x="580" y="17"/>
      <point x="400" y="-6" type="curve"/>
      <point x="705" y="-42" type="line"/>
      <point x="683" y="-188" type="line"/>
      <point x="259" y="-13" type="line" smooth="yes"/>
      <point x="105" y="51"/>
      <point x="36" y="184"/>
      <point x="36" y="357" type="curve" smooth="yes"/>
      <point x="36" y="580"/>
      <point x="160" y="716"/>
    </contour>
    <contour>
      <point x="364" y="646" type="curve" smooth="yes"/>
      <point x="276" y="646"/>
      <point x="228" y="555"/>
      <point x="228" y="357" type="curve" smooth="yes"/>
      <point x="228" y="151"/>
      <point x="278" y="62"/>
      <point x="365" y="62" type="curve" smooth="yes"/>
      <point x="451" y="62"/>
      <point x="500" y="150"/>
      <point x="500" y="356" type="curve" smooth="yes"/>
      <point x="500" y="555"/>
      <point x="452" y="646"/>
    </contour>
  </outline>
</glyph>
<glyph name="R" format="2">
  <advance width="742"/>
  <unicode hex="0052"/>
  <outline>
    <contour>
      <point x="40" y="708" type="line"/>
      <point x="421" y="708" type="line" smooth="yes"/>
      <point x="574" y="708"/>
      <point x="678" y="635"/>
      <point x="678" y="503" type="curve" smooth="yes"/>
      <point x="678" y="380"/>
      <point x="608" y="316"/>
      <point x="511" y="297" type="curve"/>
      <point x="655" y="70" type="line"/>
      <point x="726" y="70" type="line"/>
      <point x="726" y="0" type="line"/>
      <point x="527" y="0" type="line"/>
      <point x="478" y="32" type="line"/>
      <point x="336" y="286" type="line"/>
      <point x="296" y="286" type="line"/>
      <point x="296" y="70" type="line"/>
      <point x="352" y="70" type="line"/>
      <point x="352" y="0" type="line"/>
      <point x="40" y="0" type="line"/>
      <point x="40" y="70" type="line"/>
      <point x="104" y="70" type="line"/>
      <point x="104" y="638" type="line"/>
      <point x="40" y="638" type="line"/>
    </contour>
    <contour>
      <point x="296" y="355" type="line"/>
      <point x="348" y="355" type="line" smooth="yes"/>
      <point x="425" y="355"/>
      <point x="486" y="403"/>
      <point x="486" y="495" type="curve" smooth="yes"/>
      <point x="486" y="597"/>
      <point x="422" y="638"/>
      <point x="348" y="638" type="curve" smooth="yes"/>
      <point x="296" y="638" type="line"/>
    </contour>
  </outline>
</glyph>
<glyph name="S" format="2">
  <advance width="635"/>
  <unicode hex="0053"/>
  <outline>
    <contour>
      <point x="336" y="716" type="curve" smooth="yes"/>
      <point x="435" y="716"/>
      <point x="513" y="691"/>
      <point x="597" y="633" type="curve"/>
      <point x="569" y="515" type="line" smooth="yes"/>
      <point x="563" y="490"/>
      <point x="546" y="479"/>
      <point x="520" y="479" type="curve" smooth="yes"/>
      <point x="494" y="479" type="line"/>
      <point x="456.50115966796875" y="634.9161987304688" type="line"/>
      <point x="425" y="649"/>
      <point x="404" y="655"/>
      <point x="361" y="655" type="curve" smooth="yes"/>
      <point x="264" y="655"/>
      <point x="230" y="593"/>
      <point x="230" y="553" type="curve" smooth="yes"/>
      <point x="230" y="492"/>
      <point x="250" y="450"/>
      <point x="328" y="433" type="curve" smooth="yes"/>
      <point x="379" y="422" type="line" smooth="yes"/>
      <point x="542" y="387"/>
      <point x="611" y="326"/>
      <point x="611" y="208" type="curve" smooth="yes"/>
      <point x="611" y="68"/>
      <point x="503" y="-8"/>
      <point x="289" y="-8" type="curve" smooth="yes"/>
      <point x="187" y="-8"/>
      <point x="82" y="30"/>
      <point x="32" y="75" type="curve"/>
      <point x="57" y="183" type="line" smooth="yes"/>
      <point x="63" y="208"/>
      <point x="80" y="219"/>
      <point x="106" y="219" type="curve" smooth="yes"/>
      <point x="132" y="219" type="line"/>
      <point x="165" y="84" type="line"/>
      <point x="193" y="64"/>
      <point x="231" y="51"/>
      <point x="277" y="51" type="curve" smooth="yes"/>
      <point x="373" y="51"/>
      <point x="433" y="88"/>
      <point x="433" y="159" type="curve" smooth="yes"/>
      <point x="433" y="219"/>
      <point x="398" y="254"/>
      <point x="311" y="273" type="curve" smooth="yes"/>
      <point x="266" y="283" type="line" smooth="yes"/>
      <point x="121" y="315"/>
      <point x="41" y="374"/>
      <point x="41" y="505" type="curve" smooth="yes"/>
      <point x="41" y="636"/>
      <point x="142" y="716"/>
    </contour>
  </outline>
</glyph>
<glyph name="T" format="2">
  <advance width="647"/>
  <unicode hex="0054"/>
  <outline>
    <contour>
      <point x="16" y="708" type="line"/>
      <point x="631" y="708" type="line"/>
      <point x="631" y="534" type="line"/>
      <point x="559" y="534" type="line"/>
      <point x="559" y="636" type="line"/>
      <point x="423" y="636" type="line"/>
      <point x="423" y="72" type="line"/>
      <point x="497" y="72" type="line"/>
      <point x="497" y="0" type="line"/>
      <point x="157" y="0" type="line"/>
      <point x="157" y="72" type="line"/>
      <point x="231" y="72" type="line"/>
      <point x="231" y="636" type="line"/>
      <point x="88" y="636" type="line"/>
      <point x="88" y="534" type="line"/>
      <point x="16" y="534" type="line"/>
    </contour>
  </outline>
</glyph>
<glyph name="U" format="2">
  <advance width="771"/>
  <unicode hex="0055"/>
  <anchor x="278.8" y="880" name="AccentCenter"/>
  <outline>
    <contour>
      <point x="34" y="708" type="line"/>
      <point x="338" y="708" type="line"/>
      <point x="338" y="638" type="line"/>
      <point x="282" y="638" type="line"/>
      <point x="282" y="230" type="line" smooth="yes"/>
      <point x="282" y="125"/>
      <point x="346" y="74"/>
      <point x="424" y="74" type="curve" smooth="yes"/>
      <point x="502" y="74"/>
      <point x="563" y="133"/>
      <point x="563" y="230" type="curve" smooth="yes"/>
      <point x="563" y="638" type="line"/>
      <point x="507" y="638" type="line"/>
      <point x="507" y="708" type="line"/>
      <point x="727" y="708" type="line"/>
      <point x="727" y="638" type="line"/>
      <point x="671" y="638" type="line"/>
      <point x="671" y="259" type="line" smooth="yes"/>
      <point x="671" y="65"/>
      <point x="528" y="-6"/>
      <point x="386" y="-6" type="curve" smooth="yes"/>
      <point x="243" y="-6"/>
      <point x="90" y="67"/>
      <point x="90" y="285" type="curve" smooth="yes"/>
      <point x="90" y="639" type="line"/>
      <point x="34" y="639" type="line"/>
    </contour>
  </outline>
</glyph>
<glyph name="V" format="2">
  <advance width="756"/>
  <unicode hex="0056"/>
  <outline>
    <contour>
      <point x="10" y="708" type="line"/>
      <point x="316" y="708" type="line"/>
      <point x="316" y="638" type="line"/>
      <point x="239" y="638" type="line"/>
      <point x="423" y="97" type="line"/>
      <point x="584" y="638" type="line"/>
      <point x="538" y="638" type="line"/>
      <point x="538" y="708" type="line"/>
      <point x="746" y="708" type="line"/>
      <point x="746" y="638" type="line"/>
      <point x="690" y="638" type="line"/>
      <point x="486" y="0" type="line"/>
      <point x="272" y="0" type="line"/>
      <point x="66" y="638" type="line"/>
      <point x="10" y="638" type="line"/>
    </contour>
  </outline>
</glyph>
<glyph name="W" format="2">
  <advance width="1073"/>
  <unicode hex="0057"/>
  <outline>
    <contour>
      <point x="16" y="708" type="line"/>
      <point x="327" y="708" type="line"/>
      <point x="327" y="638" type="line"/>
      <point x="250" y="638" type="line"/>
      <point x="385" y="96" type="line"/>
      <point x="514" y="708" type="line"/>
      <point x="640" y="708" type="line"/>
      <point x="804" y="96" type="line"/>
      <point x="902" y="638" type="line"/>
      <point x="846" y="638" type="line"/>
      <point x="846" y="708" type="line"/>
      <point x="1057" y="708" type="line"/>
      <point x="1057" y="638" type="line"/>
      <point x="998" y="638" type="line"/>
      <point x="874" y="0" type="line"/>
      <point x="649" y="-1" type="line"/>
      <point x="548" y="431" type="line"/>
      <point x="455" y="0" type="line"/>
      <point x="251" y="0" type="line"/>
      <point x="77" y="638" type="line"/>
      <point x="16" y="638" type="line"/>
    </contour>
  </outline>
</glyph>
<glyph name="X" format="2">
  <advance width="678"/>
  <unicode hex="0058"/>
  <outline>
    <contour>
      <point x="12" y="708" type="line"/>
      <point x="12" y="638" type="line"/>
      <point x="62" y="638" type="line"/>
      <point x="239.4900665283203" y="338.6123046875" type="line"/>
      <point x="83" y="70" type="line"/>
      <point x="12" y="70" type="line"/>
      <point x="12" y="0" type="line"/>
      <point x="261" y="0" type="line"/>
      <point x="261" y="70" type="line"/>
      <point x="178" y="70" type="line"/>
      <point x="287.1358642578125" y="265.2235412597656" type="line"/>
      <point x="397" y="70" type="line"/>
      <point x="356" y="70" type="line"/>
      <point x="356" y="0" type="line"/>
      <point x="666" y="0" type="line"/>
      <point x="666" y="70" type="line"/>
      <point x="605" y="70" type="line"/>
      <point x="436.865234375" y="354.9776916503906" type="line"/>
      <point x="598" y="638" type="line"/>
      <point x="666" y="638" type="line"/>
      <point x="666" y="708" type="line"/>
      <point x="417" y="708" type="line"/>
      <point x="417" y="638" type="line"/>
      <point x="503" y="638" type="line"/>
      <point x="388.91461181640625" y="428.8360290527344" type="line"/>
      <point x="270" y="638" type="line"/>
      <point x="335" y="638" type="line"/>
      <point x="335" y="708" type="line"/>
    </contour>
  </outline>
</glyph>
<glyph name="Y" format="2">
  <advance width="701"/>
  <unicode hex="0059"/>
  <anchor x="318" y="880" name="AccentCenter"/>
  <outline>
    <contour>
      <point x="12" y="708" type="line"/>
      <point x="337" y="708" type="line"/>
      <point x="337" y="638" type="line"/>
      <point x="285" y="638" type="line"/>
      <point x="394" y="376" type="line"/>
      <point x="507" y="638" type="line"/>
      <point x="449" y="638" type="line"/>
      <point x="449" y="708" type="line"/>
      <point x="689" y="708" type="line"/>
      <point x="689" y="638" type="line"/>
      <point x="595" y="638" type="line"/>
      <point x="454" y="313" type="line"/>
      <point x="454" y="70" type="line"/>
      <point x="528" y="70" type="line"/>
      <point x="528" y="0" type="line"/>
      <point x="188" y="0" type="line"/>
      <point x="188" y="70" type="line"/>
      <point x="262" y="70" type="line"/>
      <point x="262" y="313" type="line"/>
      <point x="84" y="638" type="line"/>
      <point x="12" y="638" type="line"/>
    </contour>
  </outline>
</glyph>
<glyph name="Z" format="2">
  <advance width="658"/>
  <unicode hex="005A"/>
  <outline>
    <contour>
      <point x="40" y="708" type="line"/>
      <point x="618" y="708" type="line"/>
      <point x="618" y="650" type="line"/>
      <point x="271" y="70" type="line"/>
      <point x="522" y="70" type="line"/>
      <point x="522" y="167" type="line"/>
      <point x="618" y="167" type="line"/>
      <point x="618" y="0" type="line"/>
      <point x="40" y="0" type="line"/>
      <point x="40" y="57" type="line"/>
      <point x="401" y="638" type="line"/>
      <point x="136" y="638" type="line"/>
      <point x="136" y="541" type="line"/>
      <point x="40" y="541" type="line"/>
    </contour>
  </outline>
</glyph>
<glyph name="bracketright" format="2">
  <advance width="382"/>
  <unicode hex="005D"/>
  <outline>
    <contour>
      <point x="31" y="819" type="line"/>
      <point x="321" y="819" type="line"/>
      <point x="321" y="-64" type="line"/>
      <point x="31" y="-64" type="line"/>
      <point x="31" y="6" type="line"/>
      <point x="161" y="6" type="line"/>
      <point x="161" y="749" type="line"/>
      <point x="31" y="749" type="line"/>
    </contour>
  </outline>
</glyph>
<glyph name="a" format="2">
  <advance width="588"/>
  <unicode hex="0061"/>
  <anchor x="267" y="687" name="AccentCenter"/>
  <anchor x="257" y="687" name="Ring"/>
  <outline>
    <contour>
      <point x="317" y="238" type="line"/>
      <point x="286" y="238" type="line" smooth="yes"/>
      <point x="231" y="238"/>
      <point x="205" y="205"/>
      <point x="205" y="156" type="curve"/>
      <point x="205" y="98"/>
      <point x="222" y="72"/>
      <point x="262" y="72" type="curve" smooth="yes"/>
      <point x="296" y="72"/>
      <point x="310" y="94"/>
      <point x="317" y="103" type="curve"/>
    </contour>
    <contour>
      <point x="257" y="528" type="curve" smooth="yes"/>
      <point x="402" y="528"/>
      <point x="498" y="465"/>
      <point x="498" y="313" type="curve" smooth="yes"/>
      <point x="498" y="66" type="line"/>
      <point x="561" y="79" type="line"/>
      <point x="567" y="15" type="line"/>
      <point x="454" y="-8" type="line"/>
      <point x="394" y="-8"/>
      <point x="345" y="17"/>
      <point x="333" y="70" type="curve"/>
      <point x="300" y="22"/>
      <point x="261" y="-8"/>
      <point x="194" y="-8" type="curve" smooth="yes"/>
      <point x="105" y="-8"/>
      <point x="32" y="40"/>
      <point x="32" y="143" type="curve" smooth="yes"/>
      <point x="32" y="243"/>
      <point x="92" y="307"/>
      <point x="231" y="307" type="curve" smooth="yes"/>
      <point x="317" y="307" type="line"/>
      <point x="317" y="372" type="line" smooth="yes"/>
      <point x="317" y="409"/>
      <point x="300" y="458"/>
      <point x="219" y="458" type="curve" smooth="yes"/>
      <point x="156" y="458"/>
      <point x="115" y="441"/>
      <point x="82" y="423" type="curve"/>
      <point x="72" y="486" type="line"/>
      <point x="139" y="523"/>
      <point x="209" y="528"/>
    </contour>
  </outline>
</glyph>
<glyph name="b" format="2">
  <advance width="678"/>
  <unicode hex="0062"/>
  <outline>
    <contour>
      <point x="40" y="687" type="line"/>
      <point x="284" y="708" type="line"/>
      <point x="284" y="494" type="line"/>
      <point x="322" y="511"/>
      <point x="357" y="528"/>
      <point x="421" y="528" type="curve" smooth="yes"/>
      <point x="536" y="528"/>
      <point x="646" y="462"/>
      <point x="646" y="262" type="curve" smooth="yes"/>
      <point x="646" y="60"/>
      <point x="497" y="-8"/>
      <point x="372" y="-8" type="curve" smooth="yes"/>
      <point x="240" y="-8"/>
      <point x="177" y="13"/>
      <point x="96" y="65" type="curve"/>
      <point x="96" y="638" type="line"/>
      <point x="40" y="638" type="line"/>
    </contour>
    <contour>
      <point x="355" y="448" type="curve" smooth="yes"/>
      <point x="322" y="448"/>
      <point x="304" y="438"/>
      <point x="284" y="427" type="curve"/>
      <point x="284" y="80" type="line"/>
      <point x="300" y="67"/>
      <point x="314" y="61"/>
      <point x="352" y="61" type="curve" smooth="yes"/>
      <point x="429" y="61"/>
      <point x="462" y="130"/>
      <point x="462" y="253" type="curve" smooth="yes"/>
      <point x="462" y="394"/>
      <point x="407" y="448"/>
    </contour>
  </outline>
</glyph>
<glyph name="c" format="2">
  <advance width="555"/>
  <unicode hex="0063"/>
  <outline>
    <contour>
      <point x="300" y="528" type="curve" smooth="yes"/>
      <point x="377" y="528"/>
      <point x="450" y="510"/>
      <point x="505" y="467" type="curve"/>
      <point x="505" y="316" type="line"/>
      <point x="370" y="316" type="line"/>
      <point x="370" y="456" type="line"/>
      <point x="363" y="459"/>
      <point x="352" y="461"/>
      <point x="339" y="461" type="curve"/>
      <point x="271" y="461"/>
      <point x="224" y="410"/>
      <point x="224" y="260" type="curve" smooth="yes"/>
      <point x="224" y="134"/>
      <point x="282" y="75"/>
      <point x="364" y="75" type="curve" smooth="yes"/>
      <point x="424" y="75"/>
      <point x="463" y="89"/>
      <point x="505" y="105" type="curve"/>
      <point x="510" y="35" type="line"/>
      <point x="462" y="6"/>
      <point x="372" y="-8"/>
      <point x="298" y="-8" type="curve" smooth="yes"/>
      <point x="129" y="-8"/>
      <point x="32" y="107"/>
      <point x="32" y="260" type="curve" smooth="yes"/>
      <point x="32" y="418"/>
      <point x="130" y="528"/>
    </contour>
  </outline>
</glyph>
<glyph name="d" format="2">
  <advance width="686"/>
  <unicode hex="0064"/>
  <outline>
    <contour>
      <point x="347" y="716" type="line"/>
      <point x="329" y="644" type="line"/>
      <point x="408" y="644" type="line"/>
      <point x="408" y="468" type="line"/>
      <point x="374" y="511"/>
      <point x="325" y="528"/>
      <point x="261" y="528" type="curve" smooth="yes"/>
      <point x="146" y="528"/>
      <point x="32" y="462"/>
      <point x="32" y="262" type="curve" smooth="yes"/>
      <point x="32" y="60"/>
      <point x="145" y="-8"/>
      <point x="270" y="-8" type="curve" smooth="yes"/>
      <point x="338" y="-8"/>
      <point x="390" y="24"/>
      <point x="417" y="62" type="curve"/>
      <point x="446" y="0" type="line"/>
      <point x="670" y="0" type="line"/>
      <point x="670" y="72" type="line"/>
      <point x="596" y="72" type="line"/>
      <point x="596" y="716" type="line"/>
    </contour>
    <contour>
      <point x="325" y="447" type="curve" smooth="yes"/>
      <point x="358" y="447"/>
      <point x="388" y="428"/>
      <point x="408" y="389" type="curve"/>
      <point x="408" y="134" type="line"/>
      <point x="391" y="106"/>
      <point x="369" y="80"/>
      <point x="325" y="80" type="curve" smooth="yes"/>
      <point x="253" y="80"/>
      <point x="216" y="134"/>
      <point x="216" y="260" type="curve" smooth="yes"/>
      <point x="216" y="379"/>
      <point x="243" y="447"/>
    </contour>
  </outline>
</glyph>
<glyph name="e" format="2">
  <advance width="605"/>
  <unicode hex="0065"/>
  <anchor x="274" y="687" name="AccentCenter"/>
  <outline>
    <contour>
      <point x="311" y="528" type="curve" smooth="yes"/>
      <point x="427" y="528"/>
      <point x="573" y="470"/>
      <point x="573" y="291" type="curve" smooth="yes"/>
      <point x="573" y="266"/>
      <point x="570" y="248"/>
      <point x="567" y="238" type="curve"/>
      <point x="224" y="234" type="line"/>
      <point x="224" y="100"/>
      <point x="288" y="64"/>
      <point x="382" y="64" type="curve" smooth="yes"/>
      <point x="452" y="64"/>
      <point x="494" y="93"/>
      <point x="528" y="117" type="curve"/>
      <point x="542" y="49" type="line"/>
      <point x="469" y="2"/>
      <point x="403" y="-15"/>
      <point x="299" y="-15" type="curve" smooth="yes"/>
      <point x="145" y="-15"/>
      <point x="32" y="88"/>
      <point x="32" y="261" type="curve" smooth="yes"/>
      <point x="32" y="460"/>
      <point x="173" y="528"/>
    </contour>
    <contour>
      <point x="310" y="456" type="curve" smooth="yes"/>
      <point x="251" y="456"/>
      <point x="224" y="422"/>
      <point x="224" y="305" type="curve"/>
      <point x="391" y="305" type="line"/>
      <point x="391" y="343" type="line" smooth="yes"/>
      <point x="391" y="421"/>
      <point x="366" y="456"/>
    </contour>
  </outline>
</glyph>
<glyph name="f" format="2">
  <advance width="400"/>
  <unicode hex="0066"/>
  <outline>
    <contour>
      <point x="311" y="747" type="curve" smooth="yes"/>
      <point x="352" y="747"/>
      <point x="395" y="742"/>
      <point x="434" y="731" type="curve"/>
      <point x="421" y="648" type="line"/>
      <point x="359" y="689" type="line"/>
      <point x="311" y="689"/>
      <point x="282" y="656"/>
      <point x="282" y="604" type="curve" smooth="yes"/>
      <point x="282" y="520" type="line"/>
      <point x="363" y="520" type="line"/>
      <point x="363" y="456" type="line"/>
      <point x="282" y="456" type="line"/>
      <point x="282" y="63" type="line"/>
      <point x="361" y="63" type="line"/>
      <point x="361" y="0" type="line"/>
      <point x="13" y="0" type="line"/>
      <point x="13" y="63" type="line"/>
      <point x="90" y="63" type="line"/>
      <point x="90" y="456" type="line"/>
      <point x="8" y="456" type="line"/>
      <point x="8" y="520" type="line"/>
      <point x="90" y="520" type="line"/>
      <point x="90" y="568" type="line" smooth="yes"/>
      <point x="90" y="693"/>
      <point x="177" y="747"/>
    </contour>
  </outline>
</glyph>
<glyph name="g" format="2">
  <advance width="620"/>
  <unicode hex="0067"/>
  <outline>
    <contour>
      <point x="213" y="14" type="line"/>
      <point x="105" y="-96" type="line"/>
      <point x="161" y="-123"/>
      <point x="228" y="-136"/>
      <point x="309" y="-136" type="curve" smooth="yes"/>
      <point x="386" y="-136"/>
      <point x="437" y="-108"/>
      <point x="437" y="-63" type="curve" smooth="yes"/>
      <point x="437" y="-19"/>
      <point x="409" y="-1"/>
      <point x="357" y="3" type="curve" smooth="yes"/>
    </contour>
    <contour>
      <point x="264" y="464" type="curve" smooth="yes"/>
      <point x="221" y="464"/>
      <point x="199" y="431"/>
      <point x="199" y="354" type="curve" smooth="yes"/>
      <point x="199" y="281"/>
      <point x="224" y="250"/>
      <point x="264" y="250" type="curve" smooth="yes"/>
      <point x="306" y="250"/>
      <point x="330" y="281"/>
      <point x="330" y="354" type="curve" smooth="yes"/>
      <point x="330" y="430"/>
      <point x="309" y="464"/>
    </contour>
    <contour>
      <point x="263" y="528" type="curve" smooth="yes"/>
      <point x="364" y="528"/>
      <point x="425" y="504"/>
      <point x="464" y="442" type="curve"/>
      <point x="471" y="500"/>
      <point x="504" y="528"/>
      <point x="550" y="528" type="curve"/>
      <point x="550" y="528"/>
      <point x="613" y="514"/>
      <point x="613" y="514" type="curve"/>
      <point x="599" y="395" type="line"/>
      <point x="599" y="395"/>
      <point x="537" y="409"/>
      <point x="537" y="409" type="curve"/>
      <point x="517" y="409"/>
      <point x="500" y="389"/>
      <point x="496" y="372" type="curve"/>
      <point x="496" y="367" type="line" smooth="yes"/>
      <point x="496" y="262"/>
      <point x="420" y="186"/>
      <point x="274" y="186" type="curve" smooth="yes"/>
      <point x="233" y="186"/>
      <point x="215" y="186"/>
      <point x="215" y="186" type="curve"/>
      <point x="171" y="155" type="line"/>
      <point x="437" y="136" type="line" smooth="yes"/>
      <point x="541" y="129"/>
      <point x="599" y="78"/>
      <point x="599" y="-13" type="curve" smooth="yes"/>
      <point x="599" y="-133"/>
      <point x="472" y="-192"/>
      <point x="309" y="-192" type="curve" smooth="yes"/>
      <point x="202" y="-192"/>
      <point x="92" y="-169"/>
      <point x="17" y="-123" type="curve"/>
      <point x="17" y="-96" type="line"/>
      <point x="128" y="21" type="line"/>
      <point x="26" y="29" type="line"/>
      <point x="26" y="132" type="line"/>
      <point x="135" y="205" type="line"/>
      <point x="59" y="238"/>
      <point x="33" y="285"/>
      <point x="33" y="353" type="curve" smooth="yes"/>
      <point x="33" y="455"/>
      <point x="125" y="528"/>
    </contour>
  </outline>
</glyph>
<glyph name="h" format="2">
  <advance width="718"/>
  <unicode hex="0068"/>
  <outline>
    <contour>
      <point x="53" y="660" type="line"/>
      <point x="307" y="716" type="line"/>
      <point x="307" y="459" type="line"/>
      <point x="340" y="501"/>
      <point x="390" y="528"/>
      <point x="462" y="528" type="curve" smooth="yes"/>
      <point x="565" y="528"/>
      <point x="650" y="472"/>
      <point x="650" y="342" type="curve" smooth="yes"/>
      <point x="650" y="70" type="line"/>
      <point x="714" y="70" type="line"/>
      <point x="714" y="0" type="line"/>
      <point x="394" y="0" type="line"/>
      <point x="394" y="70" type="line"/>
      <point x="458" y="70" type="line"/>
      <point x="458" y="350" type="line" smooth="yes"/>
      <point x="458" y="411"/>
      <point x="427" y="433"/>
      <point x="392" y="433" type="curve" smooth="yes"/>
      <point x="348" y="433"/>
      <point x="326" y="415"/>
      <point x="307" y="397" type="curve"/>
      <point x="307" y="0" type="line"/>
      <point x="52" y="0" type="line"/>
      <point x="52" y="70" type="line"/>
      <point x="116" y="70" type="line"/>
      <point x="116" y="613" type="line"/>
      <point x="53" y="600" type="line"/>
    </contour>
  </outline>
</glyph>
<glyph name="i" format="2">
  <advance width="368"/>
  <unicode hex="0069"/>
  <outline>
    <contour>
      <point x="188" y="743" type="curve" smooth="yes"/>
      <point x="244" y="743"/>
      <point x="284" y="700"/>
      <point x="284" y="645" type="curve" smooth="yes"/>
      <point x="284" y="589"/>
      <point x="244" y="549"/>
      <point x="188" y="549" type="curve" smooth="yes"/>
      <point x="133" y="549"/>
      <point x="90" y="589"/>
      <point x="90" y="645" type="curve" smooth="yes"/>
      <point x="90" y="700"/>
      <point x="133" y="743"/>
    </contour>
    <component base="dotlessi" xOffset="-4"/>
  </outline>
</glyph>
<glyph name="j" format="2">
  <advance width="350"/>
  <unicode hex="006A"/>
  <outline>
    <contour>
      <point x="16" y="520" type="line"/>
      <point x="286" y="520" type="line"/>
      <point x="286" y="22" type="line" smooth="yes"/>
      <point x="286" y="-123"/>
      <point x="215" y="-191"/>
      <point x="25" y="-191" type="curve" smooth="yes"/>
      <point x="4" y="-191" type="line"/>
      <point x="4" y="-124" type="line"/>
      <point x="25" y="-124" type="line" smooth="yes"/>
      <point x="61" y="-124"/>
      <point x="94" y="-110"/>
      <point x="94" y="-74" type="curve" smooth="yes"/>
      <point x="94" y="448" type="line"/>
      <point x="16" y="448" type="line"/>
    </contour>
    <contour>
      <point x="189" y="747" type="curve" smooth="yes"/>
      <point x="242" y="747"/>
      <point x="286" y="704"/>
      <point x="286" y="651" type="curve" smooth="yes"/>
      <point x="286" y="598"/>
      <point x="242" y="554"/>
      <point x="189" y="554" type="curve" smooth="yes"/>
      <point x="136" y="554"/>
      <point x="92" y="598"/>
      <point x="92" y="651" type="curve" smooth="yes"/>
      <point x="92" y="704"/>
      <point x="136" y="747"/>
    </contour>
  </outline>
</glyph>
<glyph name="k" format="2">
  <advance width="699"/>
  <unicode hex="006B"/>
  <outline>
    <contour>
      <point x="40" y="708" type="line"/>
      <point x="289" y="708" type="line"/>
      <point x="289" y="271" type="line"/>
      <point x="467" y="450" type="line"/>
      <point x="381" y="450" type="line"/>
      <point x="381" y="520" type="line"/>
      <point x="629" y="520" type="line"/>
      <point x="629" y="450" type="line"/>
      <point x="573" y="450" type="line"/>
      <point x="424" y="296" type="line"/>
      <point x="645" y="70" type="line"/>
      <point x="689" y="70" type="line"/>
      <point x="689" y="0" type="line"/>
      <point x="493" y="0" type="line"/>
      <point x="294" y="225" type="line"/>
      <point x="289" y="225" type="line"/>
      <point x="289" y="70" type="line"/>
      <point x="363" y="70" type="line"/>
      <point x="363" y="0" type="line"/>
      <point x="40" y="0" type="line"/>
      <point x="40" y="70" type="line"/>
      <point x="104" y="70" type="line"/>
      <point x="104" y="638" type="line"/>
      <point x="40" y="638" type="line"/>
    </contour>
  </outline>
</glyph>
<glyph name="l" format="2">
  <advance width="386"/>
  <unicode hex="006C"/>
  <outline>
    <contour>
      <point x="24" y="772" type="line"/>
      <point x="280" y="772" type="line"/>
      <point x="280" y="70" type="line"/>
      <point x="362" y="70" type="line"/>
      <point x="362" y="0" type="line"/>
      <point x="88" y="0" type="line"/>
      <point x="88" y="702" type="line"/>
      <point x="24" y="702" type="line"/>
    </contour>
  </outline>
</glyph>
<glyph name="m" format="2">
  <advance width="1011"/>
  <unicode hex="006D"/>
  <outline>
    <contour>
      <point x="41" y="472" type="line"/>
      <point x="295" y="528" type="line"/>
      <point x="295" y="447" type="line"/>
      <point x="329" y="502"/>
      <point x="395" y="528"/>
      <point x="450" y="528" type="curve" smooth="yes"/>
      <point x="516" y="528"/>
      <point x="562" y="506"/>
      <point x="587" y="433" type="curve"/>
      <point x="621" y="496"/>
      <point x="682" y="528"/>
      <point x="753" y="528" type="curve" smooth="yes"/>
      <point x="856" y="528"/>
      <point x="923" y="459"/>
      <point x="923" y="329" type="curve" smooth="yes"/>
      <point x="923" y="98" type="line"/>
      <point x="987" y="98" type="line"/>
      <point x="987" y="0" type="line"/>
      <point x="731" y="0" type="line"/>
      <point x="731" y="337" type="line" smooth="yes"/>
      <point x="731" y="397"/>
      <point x="713" y="414"/>
      <point x="678" y="414" type="curve" smooth="yes"/>
      <point x="652" y="414"/>
      <point x="629" y="398"/>
      <point x="613" y="380" type="curve"/>
      <point x="613" y="98" type="line"/>
      <point x="677" y="98" type="line"/>
      <point x="677" y="0" type="line"/>
      <point x="421" y="0" type="line"/>
      <point x="421" y="337" type="line" smooth="yes"/>
      <point x="421" y="393"/>
      <point x="400" y="414"/>
      <point x="365" y="414" type="curve" smooth="yes"/>
      <point x="327" y="414"/>
      <point x="310" y="396"/>
      <point x="295" y="380" type="curve"/>
      <point x="295" y="98" type="line"/>
      <point x="359" y="98" type="line"/>
      <point x="359" y="0" type="line"/>
      <point x="40" y="0" type="line"/>
      <point x="40" y="98" type="line"/>
      <point x="104" y="98" type="line"/>
      <point x="104" y="388" type="line"/>
      <point x="41" y="388" type="line"/>
    </contour>
  </outline>
</glyph>
<glyph name="n" format="2">
  <advance width="670"/>
  <unicode hex="006E"/>
  <anchor x="274.4" y="687" name="AccentCenter"/>
  <outline>
    <contour>
      <point x="5" y="472" type="line"/>
      <point x="259" y="528" type="line"/>
      <point x="259" y="455" type="line"/>
      <point x="293" y="510"/>
      <point x="342" y="528"/>
      <point x="414" y="528" type="curve" smooth="yes"/>
      <point x="517" y="528"/>
      <point x="602" y="459"/>
      <point x="602" y="329" type="curve" smooth="yes"/>
      <point x="602" y="96" type="line"/>
      <point x="666" y="96" type="line"/>
      <point x="666" y="0" type="line"/>
      <point x="410" y="0" type="line"/>
      <point x="410" y="314" type="line" smooth="yes"/>
      <point x="410" y="392"/>
      <point x="379" y="414"/>
      <point x="344" y="414" type="curve" smooth="yes"/>
      <point x="300" y="414"/>
      <point x="272" y="387"/>
      <point x="259" y="337" type="curve"/>
      <point x="259" y="96" type="line"/>
      <point x="323" y="96" type="line"/>
      <point x="323" y="0" type="line"/>
      <point x="4" y="0" type="line"/>
      <point x="4" y="96" type="line"/>
      <point x="68" y="96" type="line"/>
      <point x="68" y="402" type="line"/>
      <point x="5" y="402" type="line"/>
    </contour>
  </outline>
</glyph>
<glyph name="o" format="2">
  <advance width="635"/>
  <unicode hex="006F"/>
  <anchor x="316" y="687" name="AccentCenter"/>
  <outline>
    <contour>
      <point x="315" y="432" type="curve" smooth="yes"/>
      <point x="252" y="432"/>
      <point x="224" y="398"/>
      <point x="224" y="258" type="curve" smooth="yes"/>
      <point x="224" y="119"/>
      <point x="251" y="88"/>
      <point x="315" y="88" type="curve" smooth="yes"/>
      <point x="379" y="88"/>
      <point x="411" y="121"/>
      <point x="411" y="260" type="curve" smooth="yes"/>
      <point x="411" y="399"/>
      <point x="378" y="432"/>
    </contour>
    <contour>
      <point x="315" y="528" type="curve" smooth="yes"/>
      <point x="490" y="528"/>
      <point x="603" y="434"/>
      <point x="603" y="257" type="curve" smooth="yes"/>
      <point x="603" y="89"/>
      <point x="485" y="-8"/>
      <point x="315" y="-8" type="curve" smooth="yes"/>
      <point x="145" y="-8"/>
      <point x="32" y="87"/>
      <point x="32" y="259" type="curve" smooth="yes"/>
      <point x="32" y="435"/>
      <point x="141" y="528"/>
    </contour>
  </outline>
</glyph>
<glyph name="p" format="2">
  <advance width="642"/>
  <unicode hex="0070"/>
  <outline>
    <contour>
      <point x="16" y="520" type="line"/>
      <point x="222" y="520" type="line"/>
      <point x="251" y="458" type="line"/>
      <point x="278" y="496"/>
      <point x="330" y="528"/>
      <point x="398" y="528" type="curve" smooth="yes"/>
      <point x="523" y="528"/>
      <point x="606" y="453"/>
      <point x="606" y="258" type="curve" smooth="yes"/>
      <point x="606" y="58"/>
      <point x="508" y="-8"/>
      <point x="393" y="-8" type="curve" smooth="yes"/>
      <point x="320" y="-8"/>
      <point x="289" y="1"/>
      <point x="260" y="20" type="curve"/>
      <point x="260" y="-125" type="line"/>
      <point x="316" y="-125" type="line"/>
      <point x="316" y="-195" type="line"/>
      <point x="72" y="-195" type="line"/>
      <point x="72" y="450" type="line"/>
      <point x="16" y="450" type="line"/>
    </contour>
    <contour>
      <point x="260" y="379" type="curve"/>
      <point x="260" y="88" type="line"/>
      <point x="278" y="79"/>
      <point x="295" y="73"/>
      <point x="323" y="73" type="curve" smooth="yes"/>
      <point x="389" y="73"/>
      <point x="422" y="141"/>
      <point x="422" y="260" type="curve" smooth="yes"/>
      <point x="422" y="365"/>
      <point x="393" y="433"/>
      <point x="321" y="433" type="curve" smooth="yes"/>
      <point x="280" y="433"/>
      <point x="260" y="407"/>
    </contour>
  </outline>
</glyph>
<glyph name="q" format="2">
  <advance width="642"/>
  <unicode hex="0071"/>
  <outline>
    <contour>
      <point x="382" y="433" type="curve"/>
      <point x="382" y="111" type="line"/>
      <point x="365" y="95"/>
      <point x="352" y="79"/>
      <point x="311" y="79" type="curve" smooth="yes"/>
      <point x="249" y="79"/>
      <point x="220" y="141"/>
      <point x="220" y="260" type="curve" smooth="yes"/>
      <point x="220" y="386"/>
      <point x="258" y="451"/>
      <point x="318" y="451" type="curve" smooth="yes"/>
      <point x="343" y="451"/>
      <point x="360" y="448"/>
    </contour>
    <contour>
      <point x="290" y="528" type="curve" smooth="yes"/>
      <point x="165" y="528"/>
      <point x="36" y="460"/>
      <point x="36" y="258" type="curve" smooth="yes"/>
      <point x="36" y="58"/>
      <point x="140" y="-8"/>
      <point x="255" y="-8" type="curve" smooth="yes"/>
      <point x="319" y="-8"/>
      <point x="348" y="12"/>
      <point x="382" y="41" type="curve"/>
      <point x="382" y="-196" type="line"/>
      <point x="626" y="-196" type="line"/>
      <point x="626" y="-126" type="line"/>
      <point x="570" y="-126" type="line"/>
      <point x="570" y="430" type="line"/>
      <point x="626" y="440" type="line"/>
      <point x="626" y="520" type="line"/>
      <point x="571" y="510"/>
      <point x="514" y="499"/>
      <point x="466" y="478" type="curve"/>
      <point x="410" y="510"/>
      <point x="379" y="528"/>
    </contour>
  </outline>
</glyph>
<glyph name="r" format="2">
  <advance width="513"/>
  <unicode hex="0072"/>
  <outline>
    <contour>
      <point x="256" y="528" type="line"/>
      <point x="286" y="389" type="line"/>
      <point x="316" y="469"/>
      <point x="357" y="528"/>
      <point x="452" y="528" type="curve" smooth="yes"/>
      <point x="464" y="528"/>
      <point x="478" y="527"/>
      <point x="493" y="526" type="curve"/>
      <point x="483" y="394" type="line"/>
      <point x="452" y="394" type="line"/>
      <point x="392" y="394"/>
      <point x="350" y="388"/>
      <point x="306" y="352" type="curve"/>
      <point x="306" y="70" type="line"/>
      <point x="380" y="70" type="line"/>
      <point x="380" y="0" type="line"/>
      <point x="40" y="0" type="line"/>
      <point x="40" y="70" type="line"/>
      <point x="114" y="70" type="line"/>
      <point x="115" y="431" type="line"/>
      <point x="41" y="419" type="line"/>
      <point x="41" y="492" type="line"/>
    </contour>
  </outline>
</glyph>
<glyph name="s" format="2">
  <advance width="552"/>
  <unicode hex="0073"/>
  <outline>
    <contour>
      <point x="299" y="528" type="curve" smooth="yes"/>
      <point x="374" y="528"/>
      <point x="450" y="510"/>
      <point x="495" y="470" type="curve"/>
      <point x="476" y="359" type="line"/>
      <point x="352" y="381" type="line"/>
      <point x="365" y="457" type="line"/>
      <point x="344" y="457"/>
      <point x="321" y="457"/>
      <point x="305" y="457" type="curve"/>
      <point x="253" y="457"/>
      <point x="227" y="436"/>
      <point x="227" y="397" type="curve" smooth="yes"/>
      <point x="227" y="364"/>
      <point x="245" y="337"/>
      <point x="288" y="327" type="curve" smooth="yes"/>
      <point x="350" y="312" type="line" smooth="yes"/>
      <point x="456" y="286"/>
      <point x="512" y="249"/>
      <point x="512" y="159" type="curve" smooth="yes"/>
      <point x="512" y="50"/>
      <point x="436" y="-8"/>
      <point x="259" y="-8" type="curve" smooth="yes"/>
      <point x="181" y="-8"/>
      <point x="89" y="21"/>
      <point x="49" y="50" type="curve"/>
      <point x="49" y="155" type="line"/>
      <point x="177" y="155" type="line"/>
      <point x="177" y="77" type="line"/>
      <point x="193" y="67"/>
      <point x="229" y="58"/>
      <point x="260" y="58" type="curve" smooth="yes"/>
      <point x="327" y="58"/>
      <point x="351" y="85"/>
      <point x="351" y="118" type="curve" smooth="yes"/>
      <point x="351" y="152"/>
      <point x="331" y="176"/>
      <point x="283" y="188" type="curve" smooth="yes"/>
      <point x="217" y="204" type="line" smooth="yes"/>
      <point x="109" y="230"/>
      <point x="58" y="262"/>
      <point x="57" y="359" type="curve" smooth="yes"/>
      <point x="57" y="462"/>
      <point x="142" y="528"/>
    </contour>
  </outline>
</glyph>
<glyph name="t" format="2">
  <advance width="453"/>
  <unicode hex="0074"/>
  <outline>
    <contour>
      <point x="110" y="614" type="line"/>
      <point x="302" y="687" type="line"/>
      <point x="302" y="520" type="line"/>
      <point x="421" y="520" type="line"/>
      <point x="421" y="424" type="line"/>
      <point x="302" y="424" type="line"/>
      <point x="302" y="144" type="line" smooth="yes"/>
      <point x="302" y="106"/>
      <point x="317" y="88"/>
      <point x="350" y="88" type="curve"/>
      <point x="368" y="88"/>
      <point x="382" y="89"/>
      <point x="394" y="90" type="curve"/>
      <point x="427" y="93" type="line"/>
      <point x="437" y="5" type="line"/>
      <point x="378" y="-4"/>
      <point x="349" y="-7"/>
      <point x="315" y="-7" type="curve" smooth="yes"/>
      <point x="174" y="-7"/>
      <point x="110" y="59"/>
      <point x="110" y="206" type="curve" smooth="yes"/>
      <point x="110" y="424" type="line"/>
      <point x="7" y="424" type="line"/>
      <point x="7" y="520" type="line"/>
      <point x="110" y="520" type="line"/>
    </contour>
  </outline>
</glyph>
<glyph name="u" format="2">
  <advance width="687"/>
  <unicode hex="0075"/>
  <anchor x="254" y="687" name="AccentCenter"/>
  <outline>
    <contour>
      <point x="2" y="520" type="line"/>
      <point x="258" y="520" type="line"/>
      <point x="258" y="204" type="line" smooth="yes"/>
      <point x="258" y="126"/>
      <point x="289" y="104"/>
      <point x="324" y="104" type="curve" smooth="yes"/>
      <point x="356" y="104"/>
      <point x="386" y="117"/>
      <point x="409" y="142" type="curve"/>
      <point x="409" y="424" type="line"/>
      <point x="345" y="424" type="line"/>
      <point x="345" y="520" type="line"/>
      <point x="600" y="520" type="line"/>
      <point x="600" y="96" type="line"/>
      <point x="663" y="96" type="line"/>
      <point x="663" y="0" type="line"/>
      <point x="409" y="0" type="line"/>
      <point x="409" y="77" type="line"/>
      <point x="382" y="23"/>
      <point x="329" y="-8"/>
      <point x="233" y="-8" type="curve" smooth="yes"/>
      <point x="120" y="-8"/>
      <point x="66" y="61"/>
      <point x="66" y="191" type="curve" smooth="yes"/>
      <point x="66" y="424" type="line"/>
      <point x="2" y="424" type="line"/>
    </contour>
  </outline>
</glyph>
<glyph name="v" format="2">
  <advance width="620"/>
  <unicode hex="0076"/>
  <outline>
    <contour>
      <point x="0" y="520" type="line"/>
      <point x="311" y="520" type="line"/>
      <point x="311" y="450" type="line"/>
      <point x="234" y="450" type="line"/>
      <point x="343" y="78" type="line"/>
      <point x="465" y="450" type="line"/>
      <point x="409" y="450" type="line"/>
      <point x="409" y="520" type="line"/>
      <point x="620" y="520" type="line"/>
      <point x="620" y="450" type="line"/>
      <point x="561" y="450" type="line"/>
      <point x="417" y="0" type="line"/>
      <point x="192" y="0" type="line"/>
      <point x="61" y="450" type="line"/>
      <point x="0" y="450" type="line"/>
    </contour>
  </outline>
</glyph>
<glyph name="w" format="2">
  <advance width="953"/>
  <unicode hex="0077"/>
  <outline>
    <contour>
      <point x="12" y="520" type="line"/>
      <point x="323" y="520" type="line"/>
      <point x="323" y="424" type="line"/>
      <point x="246" y="424" type="line"/>
      <point x="331" y="105" type="line"/>
      <point x="430" y="521" type="line"/>
      <point x="613" y="521" type="line"/>
      <point x="718" y="105" type="line"/>
      <point x="786" y="424" type="line"/>
      <point x="730" y="424" type="line"/>
      <point x="730" y="520" type="line"/>
      <point x="941" y="520" type="line"/>
      <point x="941" y="424" type="line"/>
      <point x="893" y="424" type="line"/>
      <point x="803" y="0" type="line"/>
      <point x="567" y="0" type="line"/>
      <point x="493" y="357" type="line"/>
      <point x="412" y="0" type="line"/>
      <point x="200" y="0" type="line"/>
      <point x="73" y="424" type="line"/>
      <point x="12" y="424" type="line"/>
    </contour>
  </outline>
</glyph>
<glyph name="x" format="2">
  <advance width="667"/>
  <unicode hex="0078"/>
  <outline>
    <contour>
      <point x="39" y="520" type="line"/>
      <point x="427" y="0" type="line"/>
      <point x="628" y="0" type="line"/>
      <point x="240" y="520" type="line"/>
    </contour>
    <contour>
      <point x="0" y="520" type="line"/>
      <point x="0" y="448" type="line"/>
      <point x="325" y="448" type="line"/>
      <point x="325" y="520" type="line"/>
    </contour>
    <contour>
      <point x="342" y="72" type="line"/>
      <point x="342" y="0" type="line"/>
      <point x="667" y="0" type="line"/>
      <point x="667" y="72" type="line"/>
    </contour>
    <contour>
      <point x="536" y="520" type="line"/>
      <point x="41" y="0" type="line"/>
      <point x="129" y="0" type="line"/>
      <point x="624" y="520" type="line"/>
    </contour>
    <contour>
      <point x="0" y="72" type="line"/>
      <point x="0" y="0" type="line"/>
      <point x="240" y="0" type="line"/>
      <point x="240" y="72" type="line"/>
    </contour>
    <contour>
      <point x="427" y="520" type="line"/>
      <point x="427" y="448" type="line"/>
      <point x="667" y="448" type="line"/>
      <point x="667" y="520" type="line"/>
    </contour>
  </outline>
</glyph>
<glyph name="y" format="2">
  <advance width="666"/>
  <unicode hex="0079"/>
  <anchor x="293.2" y="687" name="AccentCenter"/>
  <outline>
    <contour>
      <point x="0" y="520" type="line"/>
      <point x="311" y="520" type="line"/>
      <point x="311" y="450" type="line"/>
      <point x="234" y="450" type="line"/>
      <point x="368" y="132" type="line"/>
      <point x="526" y="520" type="line"/>
      <point x="666" y="520" type="line"/>
      <point x="666" y="450" type="line"/>
      <point x="617" y="450" type="line"/>
      <point x="368" y="-192" type="line"/>
      <point x="92" y="-192" type="line"/>
      <point x="92" y="-122" type="line"/>
      <point x="253" y="-122" type="line"/>
      <point x="275" y="-30" type="line"/>
      <point x="61" y="450" type="line"/>
      <point x="0" y="450" type="line"/>
    </contour>
  </outline>
</glyph>
<glyph name="z" format="2">
  <advance width="516"/>
  <unicode hex="007A"/>
  <outline>
    <contour>
      <point x="16" y="520" type="line"/>
      <point x="484" y="520" type="line"/>
      <point x="484" y="441" type="line"/>
      <point x="247" y="72" type="line"/>
      <point x="428" y="72" type="line"/>
      <point x="428" y="167" type="line"/>
      <point x="500" y="167" type="line"/>
      <point x="500" y="0" type="line"/>
      <point x="16" y="0" type="line"/>
      <point x="16" y="79" type="line"/>
      <point x="267" y="448" type="line"/>
      <point x="88" y="448" type="line"/>
      <point x="88" y="353" type="line"/>
      <point x="16" y="353" type="line"/>
    </contour>
  </outline>
</glyph>
<glyph name="sterling" format="2">
  <advance width="601"/>
  <unicode hex="00A3"/>
  <outline>
    <contour>
      <point x="345" y="716" type="curve" smooth="yes"/>
      <point x="433" y="716"/>
      <point x="476" y="695"/>
      <point x="520" y="672" type="curve"/>
      <point x="496" y="588" type="line"/>
      <point x="456" y="608"/>
      <point x="426" y="625"/>
      <point x="375" y="625" type="curve" smooth="yes"/>
      <point x="303" y="625"/>
      <point x="256" y="587"/>
      <point x="256" y="520" type="curve" smooth="yes"/>
      <point x="256" y="480"/>
      <point x="266" y="453"/>
      <point x="278" y="420" type="curve"/>
      <point x="420" y="420" type="line"/>
      <point x="420" y="324" type="line"/>
      <point x="313" y="324" type="line"/>
      <point x="341" y="249" type="line"/>
      <point x="184" y="120" type="line"/>
      <point x="440" y="120" type="line"/>
      <point x="440" y="212" type="line"/>
      <point x="540" y="212" type="line"/>
      <point x="540" y="0" type="line"/>
      <point x="41" y="0" type="line"/>
      <point x="41" y="74" type="line"/>
      <point x="206" y="209" type="line"/>
      <point x="162" y="324" type="line"/>
      <point x="36" y="324" type="line"/>
      <point x="36" y="420" type="line"/>
      <point x="126" y="420" type="line"/>
      <point x="115" y="445"/>
      <point x="100" y="474"/>
      <point x="100" y="522" type="curve" smooth="yes"/>
      <point x="100" y="630"/>
      <point x="170" y="716"/>
    </contour>
  </outline>
</glyph>
<glyph name="dotlessi" format="2">
  <advance width="372"/>
  <unicode hex="0131"/>
  <anchor x="135" y="687" name="AccentCenter"/>
  <outline>
    <contour>
      <point x="16" y="520" type="line"/>
      <point x="282" y="520" type="line"/>
      <point x="282" y="72" type="line"/>
      <point x="356" y="72" type="line"/>
      <point x="356" y="0" type="line"/>
      <point x="16" y="0" type="line"/>
      <point x="16" y="72" type="line"/>
      <point x="90" y="72" type="line"/>
      <point x="90" y="448" type="line"/>
      <point x="16" y="448" type="line"/>
    </contour>
  </outline>
</glyph>
<glyph name="acutecomb" format="2">
  <unicode hex="0301"/>
  <anchor x="31" y="830" name="_AccentCenter"/>
  <outline>
    <contour>
      <point x="105" y="929" type="line"/>
      <point x="152" y="798" type="line"/>
      <point x="-118" y="723" type="line"/>
      <point x="-163" y="826" type="line"/>
    </contour>
  </outline>
</glyph>
<glyph name="racingMotorcycle" format="2">
  <advance width="1024"/>
  <unicode hex="1F3CD"/>
  <image fileName="9c48a5c7-eca8-4139-bbec-76cd5d0cdc5c.png" xScale="1.9230829043476816" yScale="1.9230829043476818" xOffset="-198.2764704669287" yOffset="-135.0" color="0,0,0,0.29927"/>
  <outline>
    <contour>
      <point x="296" y="309" type="line"/>
      <point x="307" y="334" type="line"/>
      <point x="439" y="316" type="line"/>
      <point x="439" y="372" type="line"/>
      <point x="459" y="432"/>
      <point x="527" y="467"/>
      <point x="617" y="467" type="curve" smooth="yes"/>
      <point x="679" y="467" type="line"/>
      <point x="739" y="444" type="line"/>
      <point x="707" y="520" type="line"/>
      <point x="694" y="520" type="line"/>
      <point x="688" y="509" type="line"/>
      <point x="634" y="509" type="line"/>
      <point x="634" y="543" type="line"/>
      <point x="721" y="543" type="line"/>
      <point x="831" y="287" type="line"/>
      <point x="838" y="288"/>
      <point x="845" y="288"/>
      <point x="850" y="288" type="curve" smooth="yes"/>
      <point x="933" y="287"/>
      <point x="1002" y="219"/>
      <point x="1002" y="136" type="curve" smooth="yes"/>
      <point x="1002" y="53"/>
      <point x="933" y="-16"/>
      <point x="850" y="-16" type="curve" smooth="yes"/>
      <point x="767" y="-16"/>
      <point x="698" y="53"/>
      <point x="698" y="136" type="curve" smooth="yes"/>
      <point x="698" y="197"/>
      <point x="741" y="260"/>
      <point x="804" y="281" type="curve"/>
      <point x="769" y="361" type="line"/>
      <point x="699" y="324" type="line"/>
      <point x="603" y="324" type="line"/>
      <point x="603" y="262" type="line"/>
      <point x="541" y="136" type="line"/>
      <point x="404" y="136" type="line"/>
    </contour>
    <contour>
      <point x="627" y="273" type="line"/>
      <point x="627" y="300" type="line"/>
      <point x="689" y="300" type="line"/>
      <point x="689" y="271" type="line"/>
      <point x="587" y="55" type="line"/>
      <point x="205" y="55" type="line"/>
      <point x="234" y="111" type="line"/>
      <point x="576" y="112" type="line"/>
      <point x="656" y="273" type="line"/>
    </contour>
    <contour>
      <point x="789" y="446" type="line"/>
      <point x="805" y="465" type="line"/>
      <point x="857" y="465" type="line"/>
      <point x="857" y="361" type="line"/>
      <point x="823" y="361" type="line"/>
      <point x="789" y="440" type="line"/>
    </contour>
    <contour>
      <point x="211" y="440" type="curve"/>
      <point x="250" y="440" type="line"/>
      <point x="274" y="395" type="line"/>
      <point x="415" y="377" type="line"/>
      <point x="415" y="343" type="line"/>
      <point x="295" y="359" type="line"/>
      <point x="260" y="282" type="line"/>
      <point x="312" y="253"/>
      <point x="342" y="197"/>
      <point x="342" y="143" type="curve" smooth="yes"/>
      <point x="342" y="135" type="line"/>
      <point x="220" y="135" type="line"/>
      <point x="167" y="31" type="line"/>
      <point x="295" y="31" type="line"/>
      <point x="266" y="-1"/>
      <point x="227" y="-16"/>
      <point x="182" y="-16" type="curve" smooth="yes"/>
      <point x="95" y="-16"/>
      <point x="24" y="55"/>
      <point x="24" y="143" type="curve" smooth="yes"/>
      <point x="24" y="231"/>
      <point x="95" y="302"/>
      <point x="182" y="302" type="curve" smooth="yes"/>
      <point x="202" y="302"/>
      <point x="221" y="299"/>
      <point x="238" y="292" type="curve"/>
      <point x="270" y="362" type="line"/>
      <point x="107" y="383" type="line"/>
      <point x="107" y="393" type="line"/>
      <point x="126" y="419"/>
      <point x="164" y="440"/>
    </contour>
  </outline>
</glyph>
